<svg xmlns="http://www.w3.org/2000/svg" xmlns:xlink="http://www.w3.org/1999/xlink" viewBox="0 0 64 64" id="server-maintenance"><defs><linearGradient id="a" x1="-10.795" x2="47.943" y1="46.666" y2="-11.646" gradientUnits="userSpaceOnUse"><stop offset="0" stop-color="#fff200"></stop><stop offset="1" stop-color="#cd118c"></stop></linearGradient><linearGradient id="b" x1="-12.795" x2="45.943" y1="44.651" y2="-13.661" xlink:href="#a"></linearGradient><linearGradient id="c" x1="-20.304" x2="38.434" y1="37.088" y2="-21.224" xlink:href="#a"></linearGradient><linearGradient id="d" x1="-15.804" x2="42.934" y1="41.62" y2="-16.692" xlink:href="#a"></linearGradient><linearGradient id="e" x1="1.271" x2="60.008" y1="58.819" y2=".507" xlink:href="#a"></linearGradient><linearGradient id="f" x1="6.158" x2="64.895" y1="63.742" y2="5.43" xlink:href="#a"></linearGradient><linearGradient id="g" x1="-.338" x2="58.399" y1="57.198" y2="-1.114" xlink:href="#a"></linearGradient><linearGradient id="h" x1="-2.824" x2="55.914" y1="54.695" y2="-3.617" xlink:href="#a"></linearGradient><linearGradient id="i" x1="-5.559" x2="53.178" y1="51.939" y2="-6.373" xlink:href="#a"></linearGradient><linearGradient id="j" x1="-3.317" x2="55.421" y1="54.198" y2="-4.113" xlink:href="#a"></linearGradient></defs><g data-name="service"><rect width="2" height="2" x="6" y="28" fill="url(#a)"></rect><rect width="2" height="2" x="6" y="24" fill="url(#b)"></rect><path fill="url(#c)" d="M9.5,10A2.5,2.5,0,1,0,7,7.5,2.5,2.5,0,0,0,9.5,10Zm0-3a.5.5,0,1,1-.5.5A.5.5,0,0,1,9.5,7Z"></path><path fill="url(#d)" d="M9.5,14A2.5,2.5,0,1,0,12,16.5,2.5,2.5,0,0,0,9.5,14Zm0,3a.5.5,0,1,1,.5-.5A.5.5,0,0,1,9.5,17Z"></path><path fill="url(#e)" d="M59.71,45.4a7.943,7.943,0,0,0-5.65-2.34,8.848,8.848,0,0,0-.89.05l-2.93-2.94A11.372,11.372,0,0,0,50.61,39H55a1,1,0,0,0,1-1V34a1,1,0,0,0-1-1H50.61a11.8,11.8,0,0,0-1.28-3.09l3.11-3.1a1.014,1.014,0,0,0,0-1.42l-2.83-2.83a1.008,1.008,0,0,0-1.42,0l-3.1,3.11A11.8,11.8,0,0,0,42,24.39V20a1,1,0,0,0-1-1H38V3a1,1,0,0,0-1-1H3A1,1,0,0,0,2,3V58a1,1,0,0,0,1,1H5v2a1,1,0,0,0,1,1h6a1,1,0,0,0,1-1V59H27v2a1,1,0,0,0,1,1h6a1,1,0,0,0,1-1V59h2a1,1,0,0,0,1-1V53h3a1,1,0,0,0,1-1V47.61a11.372,11.372,0,0,0,1.17-.37l2.94,2.93a8.686,8.686,0,0,0-.05.89,7.943,7.943,0,0,0,2.34,5.65,8.01,8.01,0,0,0,9.46,1.38,1,1,0,0,0,.23-1.58l-3.33-3.33,1.42-1.42,3.33,3.33a.982.982,0,0,0,.85.28.971.971,0,0,0,.73-.51A8.034,8.034,0,0,0,59.71,45.4ZM37.19,26.17a1,1,0,0,0,.81-.98V21h2v4.19a1,1,0,0,0,.82.98,10.011,10.011,0,0,1,3.84,1.59,1,1,0,0,0,1.28-.11l2.96-2.97,1.42,1.42-2.97,2.96a1,1,0,0,0-.11,1.28,10.1,10.1,0,0,1,1.59,3.84,1,1,0,0,0,.98.82H54v2H49.81a1,1,0,0,0-.98.82c-.05.25-.12.5-.19.76l-1.69-1.7A8.652,8.652,0,0,0,47,36a8.007,8.007,0,0,0-8.87-7.94l-1.71-1.7C36.68,26.29,36.93,26.22,37.19,26.17Zm7.69,8.64-4.7-4.69A6,6,0,0,1,44.88,34.81ZM4,4H36v7H4Zm0,9H36v7H32.06a7.974,7.974,0,0,0-11.71-5.88,1.008,1.008,0,0,0-.52.73,1,1,0,0,0,.29.85l3.32,3.33-1.41,1.41L18.7,17.12a.988.988,0,0,0-.85-.29,1.026,1.026,0,0,0-.74.52A7.978,7.978,0,0,0,16.26,20H4Zm32,9v2.39a11.372,11.372,0,0,0-1.17.37l-2.74-2.73A.037.037,0,0,0,32.1,22ZM25.56,18.32,22.6,15.36a5.995,5.995,0,0,1,5.79,10.03,5.987,5.987,0,0,1-8.48,0,6.018,6.018,0,0,1-1.55-5.79l2.96,2.96a1.027,1.027,0,0,0,1.42,0l2.82-2.82A.99.99,0,0,0,25.56,18.32ZM11,60H7V59h4Zm22,0H29V59h4Zm3-3H4V22H16.23a7.916,7.916,0,0,0,7.92,7.15,8.491,8.491,0,0,0,.88-.05l2.73,2.73A11.372,11.372,0,0,0,27.39,33H23a1,1,0,0,0-1,1v4a1,1,0,0,0,1,1h4.39a11.8,11.8,0,0,0,1.28,3.09l-3.11,3.1a1.014,1.014,0,0,0,0,1.42l2.83,2.83a1.008,1.008,0,0,0,1.42,0l3.1-3.11A11.8,11.8,0,0,0,36,47.61Zm4.81-11.17a1,1,0,0,0-.81.98V51H38V46.81a1,1,0,0,0-.82-.98,10.011,10.011,0,0,1-3.84-1.59,1,1,0,0,0-1.28.11L29.1,47.32,27.68,45.9l2.97-2.96a1,1,0,0,0,.11-1.28,10.1,10.1,0,0,1-1.59-3.84,1,1,0,0,0-.98-.82H24V35h4.19a1,1,0,0,0,.98-.82c.05-.25.12-.5.19-.76l1.69,1.7A8.652,8.652,0,0,0,31,36a8.011,8.011,0,0,0,8,8,8.652,8.652,0,0,0,.88-.05l1.7,1.69C41.32,45.71,41.07,45.78,40.81,45.83Zm-7.69-8.64,4.69,4.69A6,6,0,0,1,33.12,37.19Zm-5.84-8.67a8.082,8.082,0,0,0,2.53-1.71,7.981,7.981,0,0,0,1.7-2.54L50.93,43.69a8.041,8.041,0,0,0-4.24,4.24ZM59.85,52.61l-2.96-2.97a1.052,1.052,0,0,0-.71-.29,1.033,1.033,0,0,0-.71.29l-2.83,2.83a1.033,1.033,0,0,0-.29.71,1.052,1.052,0,0,0,.29.71l2.97,2.96a6.042,6.042,0,0,1-5.8-1.55,6,6,0,0,1,8.49-8.49A6.036,6.036,0,0,1,59.85,52.61Z"></path><path fill="url(#f)" d="M20,46a4,4,0,1,0,4,4A4,4,0,0,0,20,46Zm0,6a1.992,1.992,0,0,1-1-3.72V50h2V48.28A1.992,1.992,0,0,1,20,52Z"></path><rect width="2" height="4" x="18" y="36" fill="url(#g)"></rect><rect width="2" height="6" x="14" y="34" fill="url(#h)"></rect><rect width="2" height="9" x="10" y="31" fill="url(#i)"></rect><path fill="url(#j)" d="M20,42v2H7a1,1,0,0,1-1-1V32H8V42Z"></path></g></svg>