<svg xmlns="http://www.w3.org/2000/svg" enable-background="new 0 0 512 512" viewBox="0 0 512 512" id="digital-library"><polygon fill="#8bdec5" points="303.5 384.119 367.777 384.119 303.5 246.276"></polygon><path fill="#8bdec5" d="M303.5 138.143v34.456l35.222-16.424c12.495-5.827 27.397-.401 33.224 12.092l4.528 9.71 0 0 7.091 15.208 72.959 156.459c5.825 12.493.4 27.397-12.093 33.224l-2.683 1.251h.545 20V147.334c0-19.319-15.718-35.037-35.038-35.037H303.5V138.143zM133.5 384.119V163.857v-51.56H84.745c-19.319 0-35.037 15.718-35.037 35.037v236.785H133.5z"></path><rect width="75" height="220.262" x="133.5" y="163.857" fill="#ff5384"></rect><path fill="#ff5384" d="M208.5,108.861V83.147V73.65c-1.616-0.329-3.288-0.503-5-0.503h-45c-13.785,0-25,11.215-25,25v10.714H208.5z"></path><polygon fill="#f5f5fc" points="133.5 163.857 208.5 163.857 208.5 138.143 303.5 138.143 303.5 112.297 303.5 83.147 208.5 83.147 208.5 108.861 133.5 108.861 133.5 112.297"></polygon><path fill="#87beeb" d="M444.431 382.868c12.493-5.826 17.918-20.73 12.093-33.224l-72.959-156.459 16.15 34.636-86.099 40.149L303.5 246.276v0l64.277 137.843h73.971L444.431 382.868zM303.5 212.006l72.973-34.028-4.528-9.71c-5.826-12.494-20.729-17.919-33.224-12.092L303.5 172.599V212.006z"></path><polygon fill="#f5f5fc" points="303.5 212.006 303.5 246.276 313.616 267.971 399.715 227.821 383.565 193.185 376.474 177.978 376.473 177.978"></polygon><path fill="#ebe287" d="M303.5,83.147V72.433c0-13.785-11.215-25-25-25h-45c-13.785,0-25,11.215-25,25v1.217v9.497H303.5z"></path><polygon fill="#ebe287" points="303.5 246.276 303.5 212.006 303.5 172.599 303.5 138.143 208.5 138.143 208.5 163.857 208.5 384.119 228.5 384.119 283.5 384.119 303.5 384.119 303.5 246.276"></polygon><path fill="#988fc4" d="M493.636,394.001c-3.474-6.28-9.055-9.882-15.312-9.882h-16.031h-20.545h-73.971H303.5h-20h-55h-20h-75H49.708
		H33.676c-6.257,0-11.838,3.603-15.312,9.883c-4.453,8.049-5.662,21.455,0.642,31.503c0.345,0.55,0.743,1.064,1.187,1.537
		c35.296,37.525,37.102,37.525,41.926,37.525h387.762c4.824,0,6.629,0,41.927-37.525c0.444-0.473,0.842-0.987,1.188-1.537
		C499.298,415.456,498.089,402.05,493.636,394.001z M316,384.231v24.188c0,14.232-11.579,25.812-25.812,25.812h-68.377
		c-14.232,0-25.812-11.579-25.812-25.812v-24.188H316z"></path><path fill="#726b93" d="M196,408.42c0,14.232,11.579,25.812,25.812,25.812h68.377c14.232,0,25.812-11.579,25.812-25.812v-24.188H196
		V408.42z"></path></svg>