<svg xmlns="http://www.w3.org/2000/svg" fill="none" stroke-width="0.1px" height="569" viewBox="0 0 1440 569" width="1440"><path d="m690.256 1.02407-.154.47581v.00002zm.322.62942-.154.47582.476.1536.154-.47581zm-.952-.3072-.476-.15361-.153.47583.476.1536zm-.002.00646.476.1532.002-.00425zm-.006.01934.476.15362v-.00042zm-.025.07713-.476-.15362zm-.099.30664-.476-.15362zm-.391 1.21147-.476-.15362v.00001zm-1.525 4.72522.475.15362v-.00001zm-5.791 17.93575.476.1536zm-20.671 64.0214.476.1536zm-5.636 17.4523v.5h.364l.112-.346zm-151.001 0-.337-.369-.95.869h1.287zm115.013-105.23322-.338-.36889zm-.675-.73778-.338-.368889v.000003zm-115.819 105.971v.5h.194l.144-.131zm-135.541 0-.246-.435-1.653.935h1.899zm185.856-105.16695-.246-.43517v.00001zm.189-.6814-.435.24623zm-.682-.18892.247.43516v-.00002zm-187.394 106.03727v.5h.132l.115-.065zm-158.064 0-.182-.466.182.966zm268.784-105.13646-.182-.46565zm.284-.64779.465-.18213zm-.648-.2835-.182-.46565v.000001zm-271.165 106.06775v.5h.094l.088-.034zm-198.71674 0-.13263-.482.13263.982zm382.07874-105.12002-.132-.48209zm-.265-.96418.133.48209zm-385.58348 106.0842v.5h.06753l.0651-.018zm-1.93984 0v-.5h-.5v.5zm0 1h-.5v.5h.5zm.221025 0 .479887-.14-.105204-.36h-.374683zm.612475.341-.132633-.482h-.000002zm1.24139-.341v-.5h-.06753l-.06511.018zm199.79443 0 .183.466-.183-.966zm-201.350593 78.76-.182139-.466h-.000013zm-.283505.647.46566-.182h-.000014zm.043532.086v.5h.908716l-.486359-.767zm-.278754 0v-.5h-.5v.5zm0 1h-.5v.5h.5zm221.21632 0 .246.436 1.653-.936h-1.899zm-220.761691 124.919.246228.435h.00001zm-.188925.681.435308-.246h-.000135zm.01133.019v.5h.902706l-.478851-.765zm-.277034 0v-.5h-.5v.5zm0 1h-.5v.5h.5zm275.35532 0 .337.369.95-.869h-1.287zm-274.690259 251.334v.5h.194229l.14329-.131zm-.671964 0v-.5h-.5v.5zm0 1h-.5v.5h.5zm.355694 0 .352373-.355-.146242-.145h-.206131zm.689599.014.33751.368h.00001zm.01514-.014v-.5h-.19422l-.1433.131zm505.56379 0 .351-.357-.146-.143h-.205zm.026.023-.327.378zm.679-.023v-.5h-.207l-.146.145zm423.763 0 .352-.356-.146-.144h-.206zm.437.137.084.493zm.268-.137v-.5h-.207l-.146.145zm506.029 0v.5h.5v-.5zm0-1h.5v-.5h-.5zm-506.06 0-.476.151.111.349h.365zm-.377-1.184.476-.153zm-1.532-4.778.476-.153zm-5.797-18.029.476-.153zm-20.657-64.165-.476.153zm-52.566-163.178v-.5h-.686l.211.654zm312.119 0 .33-.369-.14-.131h-.19zm276.42 252.348-.34.369zm.7-.032-.37-.337zm-.03-.707-.34.37zm-275.61-251.609v-.5h-1.29l.95.87zm273.39 0v.5h.5v-.5zm0-.176.13-.483-.63-.17v.653zm.56-.236-.43-.247zm-.19-.682-.24.435zm-221.3-125.525v-.5h-1.89l1.65.935zm220.93 0v.5h.5v-.5zm0-.484.13-.483-.63-.17v.653zm.59-.3.47.182zm-.28-.648.18-.466zm-201.74-79.061v-.5l-.18.965zm199.69 0 .14-.482-.07-.018h-.07zm1 .274-.13.482zm.59-.274v-.5h-.32l-.14.292zm.15 0v.5h.5v-.5zm0-1h.5v-.5h-.5zm-1.6 0-.13.482.06.018h.07zm-385.1-106.08415.13-.482049v-.000001zm-.62.34925-.48-.13283v.0002zm.35.61484.13-.48205zm381.6 105.12006v.5l.14-.982zm-198.61 0-.18.465.09.035h.09zm-270.65-106.06764-.182.46552v.00001zm-.648.28309-.465-.18245v.00009zm.283.64797-.182.46552v.00001zm268.275 105.13658v.5l.18-.966zm-157.88 0-.25.435.12.065h.13zm-186.944-106.03702.246-.434908v-.000018zm-.682.18822-.435-.24675v.00008zm.188.6816-.247.4349v.00001zm185.408 105.1672v.5h1.9l-1.65-.935zm-134.726 0-.337.369.143.131h.194zm-116.08-105.97138-.337.36925v.00002zm-.706.03216.369.33709zm.032.70638.337-.36927v-.00003zm115.271 105.23284v.5h1.289l-.952-.869zm-151.21 0-.476.153.112.347h.364zm-5.624-17.4521.476-.1533zm-20.632-64.0214.476-.1533v-.0001zm-5.781-17.93571-.476.15337zm-1.522-4.72524.475-.15337zm-.391-1.21147-.476.15336v.00002zm-.099-.30663.476-.15337v-.00026zm-.025-.07714-.476.1532.001.00043zm-.006-.01934-.477.14896.001.00424zm-.002-.00646.153.4759.476-.15338-.153-.47591zm-.629-.32251.153.47589zm-.323.62927-.476.15339.154.47587.476-.15337zm.002.00646.476-.1532v-.00189zm.007.01934-.476.15319v.00043zm.025.07713.475-.15328v-.00034zm.098.30663-.476.15328v.00012zm.391 1.21147.476-.15337v-.00002zm1.523 4.72523-.476.15337v.00001zm5.78 17.93577.476-.1534zm20.632 64.0214-.476.1533zm5.525 17.1453v.5h.687l-.211-.653zm-126.379 0-.476-.154-.211.654h.687zm5.537-17.1451.475.1537zm20.671-64.0214.476.1536zm5.79-17.93573.476.15361v-.00001zm1.526-4.72524-.476-.15361v.00001zm.391-1.21147.476.15361v-.00008zm.099-.30664-.476-.15362v.00009zm.025-.07713-.476-.15455v.00093zm.006-.01934.475.15456.002-.00561zm240.044 564.00805-.476.153zm.281.88v.5h.684l-.208-.652zm-1.062-3.318-.476.153zm-.75-2.338-.477.152zm-5.797-18.029-.476.153zm-20.657-64.165.476-.153zm-52.664-163.484.476-.153-.112-.347h-.364zm-260.664 0v-.5h-.364l-.112.347zm-52.863 163.485.476.154zm-20.795 64.165-.476-.154zm-5.872 18.03-.475-.155zm-1.571 4.779-.474-.157zm-.291.875-.474-.16-.221.66h.695zm-.658-1.189.475.157zm-.398 1.189v.5h.359l.115-.34zm1.968-5.965.475.156zm5.871-18.028.475.155zm20.794-64.164.476.154zm52.764-163.177.476.154.211-.654h-.687zm-311.229 0v-.5h-.194l-.143.131zm-274.68986 251.334-.33752-.369-.94963.869h1.28715zm652.82086-458.446.475.154.211-.654h-.686zm-151.771 0v-.5h-.195l-.143.131zm126.098 79.493v.5h.364l.111-.346zm-212.979 0-.338-.369-.949.869h1.287zm85.399-79.493.338.369.949-.869h-1.287zm-136.215 0v-.5h-.132l-.115.065zm49.334 79.493v.5h.195l.143-.131zm-189.819 0-.246-.435-1.653.935h1.899zm138.454-79.493.246.435 1.653-.935h-1.899zm-158.853 0v-.5h-.095l-.088.034zm18.368 79.493v.5h.132l.115-.064zm-221.59545 0-.18214-.465.18214.965zm654.62945-79.493v-.5h-.364l-.111.346zm127.025 0 .476-.153-.112-.347h-.364zm-152.697 79.493-.476-.153-.211.653h.687zm178.313 0v.5h.687l-.211-.653zm-24.566-79.493v-.5h-.686l.21.653zm25.617 79.493-.476.154.112.346h.364zm126.366-79.493.338-.369-.144-.131h-.194zm87.074 79.493v.5h1.29l-.95-.869zm-85.59-79.493v-.5h-1.29l.952.869zm87.08 79.493-.34.37.14.13h.2zm48.32-79.493.24-.435-.11-.065h-.13zm140.14 79.493v.5h1.9l-1.65-.935zm-138.12-79.493v-.5h-1.89l1.65.935zm140.15 79.493-.25.435.12.065h.13zm18.52-79.493.18-.466-.08-.034h-.1zm202.84 79.493v.5l.19-.965zm-1021.267 1v-.5h-.194l-.144.131zm213.749 0 .475.154.212-.654h-.687zm-351.042 125.619-.337-.369-.95.869h1.287zm310.459 0v.5h.364l.112-.346zm9.775-30.251-.476-.154zm-374.916-95.368v-.5h-.132l-.115.065zm190.493 0 .338.369.95-.869h-1.288zm-412.49303 125.619-.24624-.435-1.652662.935h1.898902zm275.20103 0v.5h.194l.143-.131zm532.533-125.619.476-.153-.112-.347h-.364zm-178.959 0v-.5h-.364l-.112.347zm209.788 95.675.475-.153zm9.648 29.944v.5h.686l-.21-.653zm-260.019 0-.476-.153-.211.653h.687zm9.675-29.944.476.154zm241.647-.307.476-.153zm-30.73-95.368v-.5h-.686l.21.654zm40.477 125.619-.476.154.112.346h.364zm311.341 0v.5h1.29l-.95-.869zm-137.6-125.619.34-.369-.15-.131h-.19zm139.08 125.619-.33.37.14.13h.19zm-137.6-125.619v-.5h-1.29l.95.87zm410.6 125.619v.5h1.9l-1.65-.935zm-221.46-125.619.24-.435-.11-.065h-.13zm-524.958-187.0951v-.00002l.952.30722c.169-.52563-.119-1.089218-.645-1.258859zm0 0v-.00002l.307-.951629c-.525-.169685-1.089.11889-1.259.644429zm.154-.47583-.476-.153602-.307.951642.475.1536zm0 0c-.237-.076416-.361-.115791-.426-.135491-.026-.007853-.063-.018925-.096-.025868-.01-.002136-.029-.005809-.053-.008323-.019-.001983-.07-.006828-.134.003304-.072.011402-.192.047361-.292.157818-.046.05034-.073.10033-.088.13538-.008.01691-.013.03097-.016.03945-.001.00433-.002.00786-.003.01001 0 .00109-.001.00199-.001.00254v.00065.00025l.955.29791c.004-.01581-.022.09255-.108.1868-.1.11003-.219.14565-.29.15688-.063.00996-.113.00511-.129.00337-.021-.00228-.037-.00547-.044-.00681-.018-.00376-.025-.00658.009.00369.055.01655.169.0529.408.13008zm-1.108.17548-.006.01934.952.3064.006-.01934zm-.006.01892-.025.07713.952.30724.025-.07713zm-.025.07713-.099.30664.952.30724.099-.30664zm-.099.30664-.391 1.21147.952.30723.391-1.21147zm-.391 1.21148-1.525 4.72523.951.30721 1.526-4.72523zm-1.525 4.72522-5.791 17.93576.952.3072 5.79-17.93573zm-5.791 17.93576c-4.989 15.4526-12.116 37.5284-20.671 64.0213l.952.3073c8.555-26.4929 15.682-48.5688 20.671-64.0214zm-20.671 64.0213-5.635 17.452.951.308 5.636-17.4527zm-5.16 17.106h-151.001v1h151.001zm-150.663.869 115.012-105.23333-.675-.73778-115.012 105.23311zm115.012-105.23333c.408-.37282.436-1.00536.063-1.412817l-.738.675027v.00001zm.063-1.412817c-.373-.407478-1.005-.435549-1.413-.062742l.675.737779v-.00001zm-1.413-.062739-115.818 105.970886.675.738 115.818-105.97111zm-115.481 105.839886h-135.541v1h135.541zm-135.295.935 185.856-105.16678-.492-.87033-185.856 105.16711zm185.856-105.16677c.481-.27197.65-.88212.378-1.36281l-.87.49246zm.378-1.36281c-.272-.48067-.882-.649857-1.363-.377839l.493.870289v.00001zm-1.363-.377856-187.394 106.037436.493.87 187.394-106.03711zm-187.148 105.972436h-158.064v1h158.064zm-157.882.966 268.784-105.13682-.364-.93129-268.784 105.13611zm268.784-105.13682c.515-.20119.768-.78124.567-1.29556l-.931.36426v.00001zm.567-1.29556c-.201-.514342-.781-.768206-1.295-.56702l.364.93129v-.00001zm-1.295-.567019-271.165 106.067399.364.932 271.165-106.06811zm-270.983 106.033399h-198.71674v1h198.71674zm-198.5841.982 382.0791-105.11994-.265-.96417-382.07937 105.12011zm382.0791-105.11993c.532-.14651.845-.69697.699-1.22943l-.964.26523v.00002zm.699-1.22943c-.147-.532527-.697-.845428-1.23-.698922l.266.964172v-.00002zm-1.23-.698924-385.58312 106.084284.26527.964 385.58385-106.08411zm-385.45048 106.066284h-1.43984v1h1.43984zm-1.43984 0h-.5v1h.5zm-1 .5v1h1v-1zm.5 1.5h.221025v-1h-.221025zm-.2588607-.36c.1530102.523.6977557.829 1.2250007.684l-.265275-.965.000047.001zm1.2250007.684 1.24138-.342-.26527-.964-1.241383.341zm1.10875-.324h199.79443v-1h-199.79443zm199.61243-.966-201.350732 78.76.364279.931 201.351453-78.759zm-201.350745 78.76c-.5143227.201-.768183.781-.5669984 1.295l.9312914-.364h.000012zm-.567013 1.295c.0237168.061.0528982.118.0868343.172l.8447147-.535-.000229-.001zm.509192-.596h-.278754v1h.278754zm-.778754.5v1h1v-1zm.5 1.5h.5v-1h-.5zm.5 0h220.71632v-1h-220.71632zm220.47032-.935-220.761928 124.919.492475.87 220.761453-124.918zm-220.761919 124.919c-.480688.272-.649834.882-.37787 1.362l.870346-.492h-.00002zm-.378005 1.362c.0073295.013.0149262.026.0227826.038l.8477104-.53h.000123zm.446638-.727h-.277034v1h.277034zm-.777034.5v1h1v-1zm.5 1.5h.5v-1h-.5zm.5 0h274.85532v-1h-274.85532zm274.51732-.869-274.689781 251.334.675041.738 274.68974-251.334zm-274.524223 252.203h.171964v-1h-.171964zm-.5 0h.5v-1h-.5zm.5.5v-1h-1v1zm-.144306-.5h-.355694v1h.355694zm-.352374.854c.376595.374.983953.39 1.379483.028l-.675026-.737h.00029zm1.379493.028.01514-.013-.67504-.738-.015142.014zm505.24141-.882h-505.56379v1h505.56379zm-.35.856c.015.015.031.03.049.045l.654-.756s-.001-.001-.002-.002zm.049.045c.399.345.991.319 1.358-.047l-.705-.709h.001zm424.769-.901h-423.763v1h423.763zm-.352.855c.221.218.542.332.873.275l-.169-.985v-.001zm.873.275c.21-.036.395-.136.536-.276l-.705-.709zm505.713-1.13h-505.529v1h505.529zm.5 0h-.5v1h.5zm-.5-.5v1h1v-1zm0 .5h.5v-1h-.5zm-505.56 0h505.56v-1h-505.56zm.477-.652c-.089-.28-.215-.676-.378-1.185l-.953.305c.163.509.289.904.378 1.183zm-.378-1.185c-.348-1.087-.862-2.692-1.532-4.778l-.952.306c.669 2.086 1.184 3.69 1.531 4.777zm-1.532-4.778c-1.34-4.173-3.302-10.274-5.797-18.029l-.952.306c2.495 7.755 4.457 13.856 5.797 18.029zm-5.797-18.029c-4.99-15.511-12.112-37.634-20.657-64.166l-.952.307c8.545 26.531 15.667 48.655 20.657 64.165zm-20.657-64.166c-14.565-45.227-33.261-103.262-52.566-163.177l-.951.307c19.304 59.914 38 117.95 52.565 163.177zm-53.042-162.524h312.119v-1h-312.119zm311.779-.13 276.42 252.347.67-.738-276.42-252.348zm276.42 252.347c.41.372 1.04.344 1.41-.064l-.74-.674zm1.41-.064c.37-.408.34-1.041-.06-1.413l-.68.739zm-.06-1.413-275.61-251.609-.68.739 275.61 251.609zm-275.95-250.74h272.89v-1h-272.89zm272.89 0h.5v-1h-.5zm1-.5v-.176h-1v.176zm-.63.307c.43.115.9-.067 1.13-.473l-.87-.493zm1.13-.473c.27-.48.1-1.091-.38-1.363l-.49.87zm-.38-1.363-221.3-125.525-.49.87 221.3 125.525zm-221.55-124.59h220.43v-1h-220.43zm220.43 0h.5v-1h-.5zm1-.5v-.484h-1v.484zm-.63-.001c.48.131 1-.121 1.19-.601l-.93-.365zm1.19-.601c.2-.514-.05-1.094-.57-1.296l-.36.931zm-.57-1.296-201.74-79.061-.36.931 201.74 79.061zm-201.92-78.095h199.69v-1h-199.69zm199.56-.018 1 .274.26-.964-.99-.274zm1 .274c.48.132.97-.109 1.17-.548l-.91-.416zm.72-.256h.15v-1h-.15zm.65-.5v-1h-1v1zm-.5-1.5h-.5v1h.5zm-.5 0h-1.1v1h1.1zm-.97.018-385.1-106.084199-.27.964089 385.11 106.08411zm-385.1-106.0842c-.53-.146673-1.08.166067-1.23.69847l.96.26567v-.00005zm-1.23.69867c-.15.53235.17 1.08284.7 1.22951l.26-.96409v-.00016zm.7 1.22951 381.6 105.12002.27-.964-381.61-105.12011zm381.73 104.13802h-198.61v1h198.61zm-198.43.034-270.648-106.067164-.364.931054 270.652 106.06711zm-270.648-106.067159c-.514-.201539-1.094.051988-1.295.566159l.931.36491v-.00003zm-1.295.566249c-.202.5141.051 1.0943.566 1.29585l.365-.93104v-.00009zm.566 1.29586 268.277 105.13605.36-.931-268.272-105.13611zm268.457 104.17105h-157.88v1h157.88zm-157.63.065-186.948-106.036928-.493.869818 186.941 106.03711zm-186.948-106.036946c-.48-.272462-1.09-.103895-1.363.376396l.87.49351v-.00005zm-1.363.376476c-.272.48041-.104 1.0907.376 1.36317l.494-.8698v-.00002zm.376 1.36318 185.415 105.16729.49-.87-185.411-105.16711zm185.655 104.23229h-134.726v1h134.726zm-134.389.131-116.08-105.971642-.674.738532 116.08 105.97111zm-116.08-105.971624c-.408-.372383-1.04-.343592-1.413.06432l.739.674174zm-1.413.06432c-.372.407814-.343 1.040334.065 1.412764l.674-.7386v.00001zm.065 1.412724 115.271 105.23258.674-.738-115.271-105.23311zm115.608 104.36358h-151.21v1h151.21zm-150.734.347-5.624-17.4524-.952.3067 5.624 17.4517zm-5.624-17.4524c-8.538-26.493-15.652-48.5688-20.632-64.0214l-.952.3067c4.98 15.4526 12.094 37.5285 20.632 64.0214zm-20.632-64.0215-5.781-17.93569-.952.30675 5.781 17.93574zm-5.781-17.93568-1.523-4.72524-.951.30674 1.522 4.72524zm-1.523-4.72524-.39-1.21147-.952.30675.391 1.21147zm-.39-1.21146-.099-.30664-.952.30673.099.30663zm-.099-.3069-.025-.07713-.951.30725.024.07713zm-.025-.0767-.006-.01934-.952.30639.006.01934zm-.005-.0151c0-.00001 0-.00013 0-.00025 0-.00011 0-.00044 0-.00066 0-.00055 0-.00144-.001-.00254 0-.00214-.001-.00567-.003-.01-.003-.00848-.008-.02254-.015-.03945-.016-.03505-.043-.08502-.088-.13535-.101-.110414-.221-.146397-.293-.157824-.064-.010154-.115-.005335-.133-.00336-.024.002503-.043.006167-.053.008299-.034.006927-.071.017982-.097.025822-.065.01967-.188.058987-.425.135293l.307.95178c.239-.07707.353-.11336.408-.12988.034-.01026.027-.00744.009-.00369-.006.00133-.023.00452-.044.00678-.016.00174-.066.00657-.129-.00342-.071-.01125-.19-.0469-.29-.15689-.086-.09423-.112-.20255-.107-.18676zm-.801.77176.475-.15337-.306-.95179-.476.15338zm.798-.78266c-.169-.525632-.733-.81444-1.259-.645016l.307.951786v.00002zm-1.259-.645017c-.525.169412-.814.732877-.645 1.258557l.952-.30678v.00001zm-.015 1.581057.476-.15338-.307-.95178-.476.15337zm.169-1.10516c-.237.0763-.36.11666-.425.13867-.025.00876-.062.0213-.093.03527-.01.00431-.027.01242-.048.02417-.016.00929-.06.03521-.106.08077-.052.05134-.128.15016-.145.29746-.008.06713-.001.123.007.16028.003.01798.007.03228.01.04081.001.00436.002.00788.003.01 0 .00108.001.00196.001.0025v.00064.00024l.951-.31017c-.005-.01571.036.08714.021.21283-.017.14672-.093.24491-.144.29547-.045.04479-.088.06981-.103.078-.018.01063-.033.01742-.039.02013-.017.00756-.024.00917.009-.00232.054-.01848.168-.05589.408-.13297zm-.797.78892.007.01934.952-.30639-.007-.01934zm.007.01977.025.07713.951-.30724-.025-.07713zm.025.07678.098.30664.952-.30655-.099-.30664zm.098.30676.391 1.21147.952-.30679-.391-1.21147zm.391 1.21144 1.523 4.72523.951-.30674-1.522-4.72523zm1.523 4.72524 5.78 17.93569.952-.3067-5.781-17.93574zm5.78 17.93569c4.98 15.4527 12.095 37.5285 20.632 64.0214l.952-.3067c-8.538-26.4929-15.652-48.5688-20.632-64.0214zm20.632 64.0214 5.526 17.145.951-.306-5.525-17.1457zm6.001 16.492h-126.379v1h126.379zm-125.903.654 5.536-17.1454-.951-.3073-5.537 17.1447zm5.536-17.1454c8.555-26.493 15.683-48.5688 20.672-64.0215l-.952-.3072c-4.989 15.4526-12.116 37.5285-20.671 64.0214zm20.672-64.0215 5.79-17.93572-.952-.30723-5.79 17.93575zm5.79-17.93573 1.525-4.72523-.951-.30721-1.526 4.72524zm1.525-4.72522.392-1.21148-.952-.30722-.391 1.21147zm.392-1.21156.099-.30664-.952-.30706-.099.30664zm.099-.30655.024-.07713-.951-.30724-.025.07713zm.024-.07619.006-.01935-.951-.30911-.006.01935zm.008-.02495c0-.00001 0-.0001 0-.00021 0-.0001 0-.0004 0-.00061.001-.00052.001-.00138.001-.00245.001-.00209.002-.00558.003-.00992.003-.0085.006-.02277.01-.04072.007-.03726.013-.0928.005-.15929-.019-.14545-.094-.24277-.145-.29341-.046-.04503-.09-.07072-.106-.08-.021-.01168-.038-.01977-.048-.02406-.031-.01396-.067-.02649-.093-.03529-.064-.02204-.188-.06246-.424-.13887l-.308.95164c.24.07719.354.11465.408.13316.033.01148.026.0099.009.00235-.006-.00269-.021-.00945-.039-.02003-.014-.00816-.057-.03295-.102-.07721-.05-.04986-.125-.14655-.144-.29142-.016-.12468.024-.22736.019-.21156zm-.321-.63123-.476-.1536-.308.95164.476.1536zm239.412 564.64333c.111.346.204.639.281.878l.952-.303c-.076-.24-.17-.534-.281-.88zm-.781-2.438c.316.986.577 1.8.781 2.438l.952-.305c-.203-.637-.465-1.453-.781-2.438zm-.751-2.339c.278.863.528 1.644.751 2.339l.952-.305c-.223-.696-.473-1.476-.75-2.339zm-5.796-18.028c2.495 7.755 4.457 13.856 5.796 18.028l.953-.305c-1.34-4.173-3.302-10.274-5.797-18.029zm-20.656-64.165c8.544 26.532 15.666 48.655 20.656 64.165l.952-.306c-4.99-15.51-12.112-37.634-20.657-64.165zm-52.665-163.483c19.339 60.023 38.075 118.179 52.665 163.483l.951-.306c-14.59-45.305-33.325-103.461-52.664-163.484zm-260.188.346h260.664v-1h-260.664zm-52.387 163.139c14.664-45.305 33.466-103.461 52.862-163.485l-.951-.307c-19.397 60.023-38.198 118.179-52.863 163.484zm-20.796 64.166c5.039-15.511 12.208-37.635 20.796-64.166l-.952-.308c-8.588 26.531-15.757 48.655-20.795 64.165zm-5.871 18.031c1.365-4.174 3.352-10.276 5.871-18.031l-.951-.309c-2.519 7.755-4.506 13.856-5.871 18.029zm-1.572 4.781c.361-1.089.889-2.695 1.572-4.781l-.951-.311c-.682 2.086-1.21 3.69-1.57 4.777zm-.292.876c.081-.241.178-.533.292-.876l-.949-.315c-.114.342-.211.633-.291.872zm-.474.341h422.986v-1h-422.986zm-1.132-1.847c-.171.514-.303.91-.397 1.186l.947.321c.095-.279.228-.677.399-1.192zm1.569-4.773c-.683 2.086-1.209 3.688-1.569 4.773l.949.315c.36-1.087.888-2.691 1.57-4.777zm5.87-18.027c-2.519 7.755-4.506 13.855-5.87 18.027l.95.311c1.365-4.173 3.352-10.274 5.871-18.029zm20.795-64.164c-8.588 26.531-15.757 48.654-20.795 64.164l.951.309c5.038-15.51 12.207-37.634 20.795-64.165zm52.763-163.176c-19.361 59.914-38.124 117.949-52.763 163.176l.951.308c14.639-45.227 33.402-103.262 52.764-163.177zm-310.753.653h311.229v-1h-311.229zm-274.35234 251.203 274.69034-251.334-.675-.738-274.69038 251.334zm-.33752.131h504.52186v-1h-504.52186zm652.82086-459.446h-151.771v1h151.771zm-25.198 80.147c9.183-28.429 17.886-55.379 25.673-79.493l-.951-.308c-7.787 24.114-16.491 51.064-25.673 79.494zm-213.454.346h212.979v-1h-212.979zm86.543-80.362-86.881 79.493.675.738 86.881-79.493zm-1.144-.131h-136.215v1h136.215zm-86.543 80.362 86.881-79.493-.675-.738-86.881 79.493zm-190.157.131h189.819v-1h-189.819zm140.238-80.428-140.484 79.493.492.871 140.485-79.494zm-1.784-.065h-158.853v1h158.853zm-140.238 80.429 140.484-79.494-.492-.87-140.485 79.493zm-221.84245.064h221.59545v-1h-221.59545zm203.04445-80.459-203.22659 79.494.36428.931 203.22731-79.493zm451.585.966h127.025v-1h-127.025zm-25.197 79.147c9.185-28.437 17.889-55.388 25.673-79.493l-.951-.308c-7.785 24.106-16.488 51.057-25.673 79.494zm177.838-.654h-178.313v1h178.313zm-26.092-78.84c7.768 24.106 16.453 51.057 25.617 79.494l.951-.307c-9.163-28.437-17.848-55.388-25.616-79.493zm1.05 0c7.771 24.114 16.456 51.064 25.617 79.494l.952-.307c-9.161-28.43-17.846-55.379-25.617-79.493zm152.459-.653h-151.983v1h151.983zm87.414 79.624-87.076-79.493-.675.738 87.081 79.494zm-213.78.869h213.44v-1h-213.44zm127.512-79.624 87.078 79.494.67-.739-87.073-79.493zm135.738-.869h-135.4v1h135.4zm140.39 79.558-140.15-79.493-.49.87 140.15 79.493zm-188.71.935h188.46v-1h-188.46zm50.1-79.558 140.14 79.493.5-.87-140.15-79.493zm158.91-.935h-158.67v1h158.67zm203.03 79.528-202.85-79.494-.36.931 202.84 79.494zm-221.55.965h221.36v-1h-221.36zm-799.907 1h213.749v-1h-213.749zm-136.955 125.488 137.292-125.619-.675-.738-137.292 125.619zm310.121-.869h-310.459v1h310.459zm9.299-29.905c-3.263 10.101-6.527 20.202-9.775 30.252l.952.307c3.247-10.05 6.511-20.151 9.775-30.251zm30.808-95.367c-9.902 30.656-20.353 63.009-30.808 95.367l.952.308c10.454-32.358 20.906-64.712 30.807-95.368zm-405.248.653h190.493v-1h-190.493zm-221.75379 125.554 221.99979-125.618-.493-.871-221.99927 125.619zm274.95479-.935h-275.20103v1h275.20103zm136.955-125.488-137.293 125.619.675.738 137.293-125.619zm395.578-.131h-178.959v1h178.959zm31.304 96.022c-10.46-32.466-20.92-64.928-30.828-95.675l-.952.307c9.908 30.747 20.368 63.208 30.829 95.674zm9.649 29.944-9.649-29.944-.951.306 9.648 29.945zm-260.495.653h260.019v-1h-260.019zm9.2-30.597c-3.231 9.997-6.461 19.995-9.676 29.944l.952.307c3.214-9.948 6.445-19.946 9.675-29.944zm30.907-95.675c-9.931 30.747-20.418 63.209-30.907 95.675l.951.307c10.49-32.466 20.976-64.928 30.907-95.675zm211.691 95.368c-10.426-32.358-20.851-64.712-30.73-95.368l-.952.307c9.879 30.656 20.304 63.01 30.73 95.368zm9.747 30.251-9.747-30.251-.952.307 9.747 30.251zm310.865-.347h-311.341v1h311.341zm-137.94-124.749 137.6 125.619.68-.739-137.6-125.619zm-213.878.13h214.218v-1h-214.218zm353.638 124.75-137.6-125.619-.68.739 137.61 125.619zm272.66-.131h-273v1h273zm-221.71-124.684 221.47 125.619.49-.87-221.47-125.619zm-188.89.065h189.14v-1h-189.14z" fill="#f2f2f2"/></svg>